<?xml version="1.0" encoding="utf-8"?>
<!-- Generator: Adobe Illustrator 26.1.0, SVG Export Plug-In . SVG Version: 6.00 Build 0)  -->
<svg version="1.1" id="Layer_1" focusable="false" xmlns="http://www.w3.org/2000/svg" xmlns:xlink="http://www.w3.org/1999/xlink"
	 x="0px" y="0px" viewBox="0 0 1000 1000" style="enable-background:new 0 0 1000 1000;" xml:space="preserve">
<style type="text/css">
	.st0{fill:#FFFFFF;}
	.st1{fill:none;}
	.st2{font-family:'GiorgioSansBold';}
	.st3{font-size:120px;}
	.st4{letter-spacing:3;}
</style>
<link  id="dark-mode-general-link" rel="stylesheet" type="text/css" xmlns=""></link>
<link  id="dark-mode-custom-link" rel="stylesheet" type="text/css" xmlns=""></link>
<path id="_Path_2" class="st0" d="M187,257.8h-55.6v-9.5c0-15.8,5.6-21.7,14.3-30.9l21.7-22.9c17.6-18.7,21.4-30.6,21.4-50.9v-19.6
	c0-28.8-14-42.5-44.3-42.5c-29.7,0-44.9,15.8-44.9,44v24.4h30.9v-25.3c0-12.2,5.9-15.8,13.1-15.8c6.5,0,12.2,2.7,12.2,15.2v16.7
	c0,16.7-1.5,23.2-12.5,34.8l-19,20.2C105.8,215.2,99,228.3,99,248.2v37.2h88V257.8z"/>
<g>
	<path id="_Path_3" class="st0" d="M413.1,849.7v14.1c0,0.1,0,0.2,0,0.3c0,0.1,0,0.2,0,0.3c0.1,3.5,3,6.3,6.5,6.3c0,0,0.1,0,0.1,0
		h0.2h165c0,0,0.1,0,0.1,0h0.2c3.6-0.1,6.5-3,6.5-6.6l0,0c0,0,0,0,0,0v-16c92.9-30.4,162.4-105.7,177.7-197.4c0-0.2,0.1-0.4,0.1-0.5
		c0.1-0.3,0.1-0.6,0.1-0.9c0-3.7-3-6.7-6.7-6.7c0,0,0,0,0,0H237.1c-3.7,0-6.7,3-6.7,6.6c0,0,0,0,0,0l0.4,3
		C246.9,744.8,318.3,820.5,413.1,849.7"/>
	<path id="_Path_4" class="st0" d="M591.5,418.2c-2.2,3.1-53,76.2,1.1,135.3c24.8,27.1,22.7,51.1,15.6,67.2h34.7
		c7-23.9,4.1-53.8-24-84.6c-39.9-43.6,0.5-102.5,1.1-103.4c4.8-6.7,2.2-15.4-5.6-19.4S596.3,411.5,591.5,418.2"/>
	<path id="_Path_5" class="st0" d="M503.6,620.8h34.7c7-23.9,4.1-53.8-24.1-84.6c-39.9-43.6,0.5-102.5,1.1-103.4
		c4.7-6.7,2.2-15.3-5.6-19.4s-18.1-1.9-22.8,4.8c-2.2,3.1-53,76.2,1.1,135.3C512.8,580.7,510.7,604.6,503.6,620.8"/>
	<path id="_Path_6" class="st0" d="M382.3,418.2c-2.2,3.1-53,76.2,1.1,135.3c24.8,27.2,22.7,51.1,15.6,67.2h34.7
		c7-23.9,4.1-53.8-24.1-84.6c-39.9-43.6,0.5-102.5,1.1-103.4c4.7-6.7,2.2-15.4-5.7-19.4S387.1,411.5,382.3,418.2"/>
</g>
<rect x="-103.2" y="291.9" class="st1" width="2.1" height="0"/>
<rect x="288.3" y="84.5" class="st1" width="788.4" height="203.5"/>
<text transform="matrix(1 0 0 1 288.3464 165.8519)"><tspan x="0" y="0" class="st0 st2 st3 st4">EINKI  </tspan><tspan x="0" y="120" class="st0 st2 st3 st4">HUNGUR</tspan></text>
</svg>
