<?xml version="1.0" encoding="utf-8"?>
<!-- Generator: Adobe Illustrator 26.1.0, SVG Export Plug-In . SVG Version: 6.00 Build 0)  -->
<svg version="1.1" id="Layer_1" focusable="false" xmlns="http://www.w3.org/2000/svg" xmlns:xlink="http://www.w3.org/1999/xlink"
	 x="0px" y="0px" viewBox="0 0 1000 1000" style="enable-background:new 0 0 1000 1000;" xml:space="preserve">
<style type="text/css">
	.st0{fill:#FFFFFF;}
	.st1{fill:none;}
	.st2{font-family:'GiorgioSansBold';}
	.st3{font-size:120px;}
	.st4{letter-spacing:3;}
</style>
<link  id="dark-mode-general-link" rel="stylesheet" type="text/css" xmlns=""></link>
<link  id="dark-mode-custom-link" rel="stylesheet" type="text/css" xmlns=""></link>
<g>
	<path id="_Path_2" class="st0" d="M142.7,288.1c34.2,0,49.1-18.1,49.1-46.1v-29.7c0-18.4-8-30.3-25-34.2
		c14-4.5,23.2-15.8,23.2-32.7v-17.5c0-28.5-13.7-46.1-44.9-46.1c-35.1,0-47.3,20.8-47.3,50.6v17.8h30.9v-20.5
		c0-12.5,3.9-19.6,14.6-19.6s14.6,7.1,14.6,18.1v21.7c0,10.7-7.1,16.4-18.1,16.4h-12.8v25.9h14.3c11.9,0,16.6,5.6,16.6,16.4v33.3
		c0,10.7-4.8,18.2-15.2,18.2c-11.6,0-15.8-7.8-15.8-19.6v-28.8H96v26.5C96,268.5,108.2,288.1,142.7,288.1"/>
	<g>
		<path id="_Path_3" class="st0" d="M835.3,625c0-28.1-18-51-45.4-51c-13.7,0-30.2,15-39.1,24.2c-9-9.2-24.4-24.2-38-24.2
			c-27.3,0-46.5,22.8-46.5,51c0,13.4,5.2,26.4,14.5,36l0,0l70.1,70.2l70-70.2l-0.1,0C830.1,651.4,835.3,638.4,835.3,625z"/>
		<g id="_Group_">
			<path id="_Path_4" class="st0" d="M536.8,845.9h-0.7c-5.3-0.3-9.7-4.3-10.6-9.5l-35.6-207.4l-53.9,100c-3,5.6-10,7.7-15.6,4.7
				c-3.2-1.7-5.4-4.9-5.9-8.5l-22.9-160l-41.9,94.1c-1.8,4.2-6,6.8-10.5,6.9H176.2c-6.4-0.4-11.2-5.8-10.8-12.2
				c0.3-5.8,5-10.5,10.8-10.8h155.4l55.1-123.8c2.6-5.8,9.4-8.4,15.2-5.9c3.6,1.6,6.1,4.9,6.7,8.9l23.6,165l53.2-98.6
				c3-5.6,10-7.7,15.6-4.6c3.1,1.7,5.3,4.7,5.9,8.2l33,192.1L660,385c1.8-6.1,8.3-9.5,14.4-7.7c3.1,0.9,5.6,3.1,7,6l63.2,131.1
				c2.9,5.7,0.6,12.6-5.1,15.5c-5.7,2.9-12.6,0.6-15.5-5.1c-0.1-0.1-0.1-0.3-0.2-0.4L673.6,420L547.8,837.7
				C546.4,842.5,541.9,845.9,536.8,845.9z"/>
		</g>
	</g>
</g>
<rect x="288.3" y="84.5" class="st1" width="788.4" height="203.5"/>
<text transform="matrix(1 0 0 1 288.3464 165.8519)"><tspan x="0" y="0" class="st0 st2 st3 st4">GÓÐ HEILSA  </tspan><tspan x="0" y="120" class="st0 st2 st3 st4">OG VÆLFERÐ</tspan></text>
</svg>
